<?xml version="1.0" encoding="UTF-8" standalone="no"?>
<!DOCTYPE svg PUBLIC "-//W3C//DTD SVG 1.1//EN" "http://www.w3.org/Graphics/SVG/1.1/DTD/svg11.dtd">
<svg width="100%" height="100%" viewBox="0 0 1200 630" version="1.1" xmlns="http://www.w3.org/2000/svg" xmlns:xlink="http://www.w3.org/1999/xlink" xml:space="preserve" xmlns:serif="http://www.serif.com/" style="fill-rule:evenodd;clip-rule:evenodd;stroke-linejoin:round;stroke-miterlimit:2;">
    <rect x="0" y="0" width="1200" height="630" style="fill:rgb(0,9,31);"/>
    <g transform="matrix(1.71577,0,0,1.71577,-655.611,-3.93651)">
        <g transform="matrix(-2.2143,0,0,2.2143,1368.89,-93.2387)">
            <g>
                <g transform="matrix(1,0,0,1,-1,0)">
                    <g id="Cube" transform="matrix(0.653667,0,0,0.653667,73.4618,42.5785)">
                        <path d="M110.851,64L55.426,96L110.851,128L166.277,96L110.851,64Z" style="fill:rgb(0,24,77);"/>
                        <path d="M110.851,128L110.851,192L166.277,160L166.277,96L110.851,128Z" style="fill:rgb(0,27,85);"/>
                        <path d="M55.426,96L110.851,128L110.851,192L55.426,160L55.426,96Z" style="fill:rgb(0,32,100);"/>
                    </g>
                    <g id="Cube1" serif:id="Cube" transform="matrix(0.653667,0,0,0.653667,109.692,105.331)">
                        <path d="M110.851,64L55.426,96L110.851,128L166.277,96L110.851,64Z" style="fill:rgb(0,24,77);"/>
                        <path d="M110.851,128L110.851,192L166.277,160L166.277,96L110.851,128Z" style="fill:rgb(0,27,85);"/>
                        <path d="M55.426,96L110.851,128L110.851,192L55.426,160L55.426,96Z" style="fill:rgb(0,32,100);"/>
                    </g>
                    <g id="Cube2" serif:id="Cube" transform="matrix(0.653667,0,0,0.653667,145.922,42.5785)">
                        <path d="M110.851,64L55.426,96L110.851,128L166.277,96L110.851,64Z" style="fill:rgb(0,24,77);"/>
                        <path d="M110.851,128L110.851,192L166.277,160L166.277,96L110.851,128Z" style="fill:rgb(0,27,85);"/>
                        <path d="M55.426,96L110.851,128L110.851,192L55.426,160L55.426,96Z" style="fill:rgb(0,32,100);"/>
                    </g>
                </g>
                <g transform="matrix(1,0,0,1,-1,-125.423)">
                    <g id="Cube3" serif:id="Cube">
                    </g>
                    <g id="Cube4" serif:id="Cube" transform="matrix(0.653667,0,0,0.653667,109.692,105.331)">
                        <path d="M110.851,64L55.426,96L110.851,128L166.277,96L110.851,64Z" style="fill:rgb(0,24,77);"/>
                        <path d="M110.851,128L110.851,192L166.277,160L166.277,96L110.851,128Z" style="fill:rgb(0,27,85);"/>
                        <path d="M55.426,96L110.851,128L110.851,192L55.426,160L55.426,96Z" style="fill:rgb(0,32,100);"/>
                    </g>
                    <g id="Cube5" serif:id="Cube">
                    </g>
                </g>
                <g transform="matrix(1,0,0,1,-109.692,62.7532)">
                    <g id="Cube6" serif:id="Cube">
                    </g>
                    <g id="Cube7" serif:id="Cube">
                    </g>
                    <g id="Cube8" serif:id="Cube" transform="matrix(0.653667,0,0,0.653667,145.922,42.5785)">
                        <path d="M110.851,64L55.426,96L110.851,128L166.277,96L110.851,64Z" style="fill:rgb(0,24,77);"/>
                        <path d="M110.851,128L110.851,192L166.277,160L166.277,96L110.851,128Z" style="fill:rgb(0,27,85);"/>
                    </g>
                </g>
                <g transform="matrix(1,0,0,1,-109.692,-62.7532)">
                    <g id="Cube9" serif:id="Cube">
                    </g>
                    <g id="Cube10" serif:id="Cube">
                    </g>
                    <g id="Cube11" serif:id="Cube" transform="matrix(0.653667,0,0,0.653667,145.922,42.5785)">
                        <path d="M110.851,64L55.426,96L110.851,128L166.277,96L110.851,64Z" style="fill:rgb(0,24,77);"/>
                        <path d="M110.851,128L110.851,192L166.277,160L166.277,96L110.851,128Z" style="fill:rgb(0,27,85);"/>
                    </g>
                </g>
            </g>
        </g>
        <g id="Creeper-No-Outline" transform="matrix(-0.707053,0,0,0.707053,928.722,209.181)">
            <g transform="matrix(1,0,0,1,-128,-143.5)">
                <g id="Creeper" transform="matrix(0.948462,0,0,0.948462,6.59682,7.2729)">
                    <g id="Back-Feet" serif:id="Back Feet" transform="matrix(1,0,0,1,0.00014,-15.337)">
                        <g transform="matrix(0,-1,-1,0,78.4631,250.766)">
                            <path d="M-4.992,78.463L47.409,78.463L31.883,51.571L-20.517,51.571L-4.992,78.463Z" style="fill:rgb(0,32,100);"/>
                        </g>
                        <g transform="matrix(0,-1,-1,0,126.567,283.34)">
                            <path d="M43.112,45.89L95.512,45.89L64.458,99.673L12.058,99.673L43.112,45.89Z" style="fill:rgb(0,25,85);"/>
                        </g>
                        <g transform="matrix(0.866027,0.499997,0.499997,-0.866027,-47.968,267.866)">
                            <path d="M40.338,133.638L71.392,133.638L40.338,79.851L9.288,79.851L40.338,133.638Z" style="fill:rgb(0,24,77);"/>
                        </g>
                    </g>
                    <g id="Front-Foot" serif:id="Front Foot" transform="matrix(1,0,0,1,0.00014,-15.337)">
                        <g transform="matrix(0,-1,-1,0,101.198,335.604)">
                            <path d="M48.793,47.411L101.197,47.411L85.668,20.52L33.268,20.52L48.793,47.411Z" style="fill:rgb(0,32,100);"/>
                        </g>
                        <g transform="matrix(0,-1,-1,0,149.297,368.18)">
                            <path d="M96.897,14.833L149.297,14.833L118.247,68.621L65.843,68.621L96.897,14.833Z" style="fill:rgb(0,27,85);"/>
                        </g>
                        <g transform="matrix(0.866026,0.499999,0.499999,-0.866026,-25.2359,245.135)">
                            <path d="M94.125,102.585L125.175,102.585L94.125,48.801L63.071,48.801L94.125,102.585Z" style="fill:rgb(0,24,77);"/>
                        </g>
                    </g>
                    <g id="Chest" transform="matrix(1,0,0,1,0.00014,-15.337)">
                        <g transform="matrix(1,0,0,1,-28.8266,-4.9243)">
                            <path d="M83.138,136.165L136.922,105.111L136.922,208.948L83.138,240L83.138,136.165Z" style="fill:rgb(0,27,85);"/>
                        </g>
                        <g transform="matrix(1,0,0,1,-28.8266,-4.9243)">
                            <path d="M83.138,240L83.138,136.165L56.244,120.64L56.244,224.473L83.138,240Z" style="fill:rgb(0,32,100);"/>
                        </g>
                    </g>
                    <g id="Head" transform="matrix(1,0,0,1,0.00014,-15.337)">
                        <g transform="matrix(-0.866027,0.499997,0.499997,0.866027,74.6505,-135.888)">
                            <path d="M49.457,182.22L111.561,182.22L142.615,236.003L80.511,236.003L49.457,182.22Z" style="fill:rgb(0,27,85);"/>
                        </g>
                        <g transform="matrix(-0.866024,0.500003,0.500003,0.866024,50.5921,-127.589)">
                            <path d="M69.477,200.437L87.369,200.437L96.314,215.933L78.423,215.933L69.477,200.437Z" style="fill:rgb(0,17,54);"/>
                        </g>
                        <g transform="matrix(-0.866007,0.500031,0.500031,0.866007,60.4323,-124.947)">
                            <path d="M81.965,202.37L89.299,202.37L92.966,208.72L85.632,208.72L81.965,202.37Z" style="fill:rgb(64,143,188);"/>
                        </g>
                        <g transform="matrix(-0.866026,0.499998,0.499998,0.866026,95.0669,-172.065)">
                            <path d="M97.672,216.716L115.564,216.716L124.51,232.213L106.618,232.213L97.672,216.716Z" style="fill:rgb(0,17,54);"/>
                        </g>
                        <g transform="matrix(-0.86607,0.499923,0.499923,0.86607,90.5176,-155.008)">
                            <path d="M101.021,213.372L108.354,213.372L112.02,219.723L104.686,219.722L101.021,213.372Z" style="fill:rgb(64,143,188);"/>
                        </g>
                        <g transform="matrix(-0.866002,0.500041,0.500041,0.866002,84.1353,-131.301)">
                            <path d="M94.667,202.371L102.005,202.371L105.672,208.721L98.339,208.721L94.667,202.371Z" style="fill:rgb(0,17,54);"/>
                        </g>
                        <g transform="matrix(-0.866007,0.500031,0.500031,0.866007,74.121,-121.282)">
                            <path d="M88.319,198.704L95.652,198.704L99.319,205.053L91.986,205.054L88.319,198.704Z" style="fill:rgb(0,17,54);"/>
                        </g>
                        <g transform="matrix(-0.866007,0.500031,0.500031,0.866007,77.786,-107.6)">
                            <path d="M88.318,191.37L95.651,191.37L99.318,197.723L91.985,197.724L88.318,191.37Z" style="fill:rgb(0,17,54);"/>
                        </g>
                        <g transform="matrix(-0.866007,0.500031,0.500031,0.866007,67.7659,-97.5771)">
                            <path d="M81.965,187.701L89.298,187.701L92.965,194.054L85.632,194.054L81.965,187.701Z" style="fill:rgb(0,17,54);"/>
                        </g>
                        <g transform="matrix(-0.866007,0.500031,0.500031,0.866007,71.4321,-83.8926)">
                            <path d="M81.964,180.369L89.298,180.369L92.965,186.719L85.632,186.719L81.964,180.369Z" style="fill:rgb(0,17,54);"/>
                        </g>
                        <g transform="matrix(-0.866063,0.499935,0.499935,0.866063,81.4773,-93.9115)">
                            <path d="M88.318,184.033L95.651,184.033L99.317,190.388L91.984,190.383L88.318,184.033Z" style="fill:rgb(0,17,54);"/>
                        </g>
                        <g transform="matrix(-0.866009,0.500029,0.500029,0.866009,91.4715,-103.929)">
                            <path d="M94.666,187.701L102.003,187.701L105.67,194.055L98.337,194.055L94.666,187.701Z" style="fill:rgb(0,17,54);"/>
                        </g>
                        <g transform="matrix(-0.866011,0.500025,0.500025,0.866011,97.8259,-127.634)">
                            <path d="M101.022,198.704L108.355,198.704L112.021,205.053L104.688,205.054L101.022,198.704Z" style="fill:rgb(0,17,54);"/>
                        </g>
                        <g transform="matrix(-0.865977,0.500084,0.500084,0.865977,101.477,-113.95)">
                            <path d="M101.021,191.369L108.354,191.369L112.022,197.722L104.689,197.723L101.021,191.369Z" style="fill:rgb(0,17,54);"/>
                        </g>
                        <g transform="matrix(-0.866011,0.500025,0.500025,0.866011,104.863,-101.37)">
                            <path d="M101.021,184.627L108.354,184.627L112.021,190.98L104.688,190.98L101.021,184.627Z" style="fill:rgb(0,17,54);"/>
                        </g>
                        <g transform="matrix(-0.866066,0.499929,0.499929,0.866066,74.8261,-71.3143)">
                            <path d="M81.965,173.627L89.298,173.627L92.964,179.978L85.631,179.977L81.965,173.627Z" style="fill:rgb(0,17,54);"/>
                        </g>
                        <g transform="matrix(-0.866022,0.500006,0.500006,0.866022,87.8095,-117.617)">
                            <path d="M94.666,195.036L102.004,195.036L105.67,201.39L98.336,201.39L94.666,195.036Z" style="fill:rgb(0,17,54);"/>
                        </g>
                        <g transform="matrix(0,1,1,0,-166.857,50.977)">
                            <path d="M26.722,236L88.831,236L57.777,182.217L-4.328,182.217L26.722,236Z" style="fill:rgb(0,32,100);"/>
                        </g>
                        <g transform="matrix(0.866026,-0.5,-0.5,-0.866026,137.108,302.654)">
                            <path d="M22.568,282.581L84.672,282.581L115.726,228.798L53.618,228.798L22.568,282.581Z" style="fill:rgb(0,24,77);"/>
                        </g>
                    </g>
                </g>
            </g>
        </g>
    </g>
    <g id="gomint-text-solid-logo-colored-vibrant-white-text" transform="matrix(0.133929,0,0,0.133929,360,157.5)">
        <g transform="matrix(1,0,0,1,-1792,-320)">
            <clipPath id="_clip1">
                <rect x="0" y="0" width="3584" height="640"/>
            </clipPath>
            <g clip-path="url(#_clip1)">
                <g transform="matrix(1.16464,0,0,1.16464,-744.601,95.1755)">
                    <g transform="matrix(600,0,0,600,1697.12,341.842)">
                        <path d="M0.037,-0.265C0.037,-0.119 0.123,-0.006 0.263,-0.006C0.337,-0.006 0.384,-0.034 0.414,-0.083L0.416,-0.083C0.416,-0.083 0.414,-0.067 0.414,-0.051L0.414,-0.017C0.414,0.085 0.342,0.124 0.254,0.124C0.178,0.124 0.116,0.09 0.116,0.09L0.083,0.168C0.133,0.193 0.195,0.21 0.256,0.21C0.384,0.21 0.511,0.146 0.511,-0.021L0.511,-0.403C0.511,-0.416 0.52,-0.423 0.533,-0.423L0.573,-0.423L0.573,-0.506L0.479,-0.506C0.439,-0.506 0.423,-0.485 0.423,-0.455L0.423,-0.439L0.421,-0.439C0.421,-0.439 0.385,-0.518 0.259,-0.518C0.118,-0.518 0.037,-0.41 0.037,-0.265ZM0.282,-0.09C0.191,-0.09 0.136,-0.162 0.136,-0.267C0.136,-0.37 0.186,-0.434 0.274,-0.434C0.352,-0.434 0.417,-0.396 0.417,-0.264C0.417,-0.132 0.352,-0.09 0.282,-0.09Z" style="fill:white;fill-rule:nonzero;"/>
                    </g>
                    <g transform="matrix(600,0,0,600,2054.12,341.842)">
                        <path d="M0.036,-0.254C0.036,-0.1 0.157,0.012 0.308,0.012C0.459,0.012 0.581,-0.1 0.581,-0.254C0.581,-0.407 0.459,-0.518 0.308,-0.518C0.157,-0.518 0.036,-0.407 0.036,-0.254ZM0.135,-0.254C0.135,-0.359 0.213,-0.434 0.308,-0.434C0.404,-0.434 0.482,-0.359 0.482,-0.254C0.482,-0.148 0.404,-0.072 0.308,-0.072C0.213,-0.072 0.135,-0.148 0.135,-0.254Z" style="fill:white;fill-rule:nonzero;"/>
                    </g>
                    <g transform="matrix(600,0,0,600,2424.32,341.842)">
                        <path d="M0.085,0L0.182,0L0.182,-0.231C0.182,-0.254 0.184,-0.276 0.189,-0.296C0.208,-0.368 0.26,-0.43 0.334,-0.43C0.411,-0.43 0.421,-0.369 0.421,-0.303L0.421,0L0.518,0L0.518,-0.231C0.518,-0.257 0.521,-0.279 0.526,-0.3C0.544,-0.369 0.598,-0.43 0.668,-0.43C0.743,-0.43 0.757,-0.374 0.757,-0.303L0.757,-0.064C0.757,-0.019 0.776,0 0.821,0L0.917,0L0.917,-0.083L0.876,-0.083C0.862,-0.083 0.854,-0.09 0.854,-0.105L0.854,-0.324C0.854,-0.453 0.801,-0.518 0.687,-0.518C0.605,-0.518 0.535,-0.464 0.507,-0.403L0.505,-0.403C0.488,-0.479 0.439,-0.518 0.353,-0.518C0.274,-0.518 0.204,-0.461 0.18,-0.402L0.178,-0.402C0.178,-0.402 0.179,-0.415 0.179,-0.431L0.179,-0.45C0.179,-0.487 0.159,-0.506 0.115,-0.506L0.022,-0.506L0.022,-0.423L0.063,-0.423C0.077,-0.423 0.085,-0.416 0.085,-0.401L0.085,0Z" style="fill:white;fill-rule:nonzero;"/>
                    </g>
                    <g transform="matrix(600,0,0,600,2986.52,341.842)">
                        <path d="M0.092,-0.605L0.179,-0.605L0.179,-0.706L0.092,-0.706L0.092,-0.605ZM0.09,-0.064C0.09,-0.019 0.109,0 0.154,0L0.249,0L0.249,-0.083L0.208,-0.083C0.194,-0.083 0.186,-0.09 0.186,-0.105L0.186,-0.442C0.186,-0.487 0.167,-0.506 0.122,-0.506L0.027,-0.506L0.027,-0.423L0.068,-0.423C0.082,-0.423 0.09,-0.416 0.09,-0.401L0.09,-0.064Z" style="fill:white;fill-rule:nonzero;"/>
                    </g>
                    <g transform="matrix(600,0,0,600,3151.52,341.842)">
                        <path d="M0.085,0L0.182,0L0.182,-0.237C0.182,-0.262 0.184,-0.285 0.191,-0.305C0.211,-0.378 0.273,-0.429 0.351,-0.429C0.432,-0.429 0.446,-0.373 0.446,-0.302L0.446,-0.064C0.446,-0.019 0.465,0 0.51,0L0.606,0L0.606,-0.083L0.565,-0.083C0.551,-0.083 0.543,-0.09 0.543,-0.105L0.543,-0.324C0.543,-0.453 0.489,-0.518 0.369,-0.518C0.259,-0.518 0.199,-0.446 0.179,-0.402L0.177,-0.402C0.177,-0.402 0.179,-0.415 0.179,-0.431L0.179,-0.45C0.179,-0.487 0.158,-0.506 0.115,-0.506L0.022,-0.506L0.022,-0.423L0.063,-0.423C0.077,-0.423 0.085,-0.416 0.085,-0.401L0.085,0Z" style="fill:white;fill-rule:nonzero;"/>
                    </g>
                    <g transform="matrix(600,0,0,600,3527.12,341.842)">
                        <path d="M0.089,-0.185C0.089,-0.016 0.218,0.004 0.282,0.004C0.303,0.004 0.316,0.002 0.316,0.002L0.316,-0.084C0.316,-0.084 0.307,-0.082 0.293,-0.082C0.256,-0.082 0.186,-0.095 0.186,-0.196L0.186,-0.428L0.307,-0.428L0.307,-0.506L0.186,-0.506L0.186,-0.645L0.091,-0.645L0.091,-0.506L0.023,-0.506L0.023,-0.428L0.089,-0.428L0.089,-0.185Z" style="fill:white;fill-rule:nonzero;"/>
                    </g>
                </g>
                <g id="gomint-solid-black">
                    <g transform="matrix(2.90352,-0.779091,0.83299,2.71565,-992.201,-1345.35)">
                        <path d="M249.106,706.478C238.783,727.981 233,752.071 233,777.5C233,784.404 233.426,791.209 234.304,797.878C179.278,762.384 148.61,695.625 162.209,627.509C162.868,624.212 163.62,620.958 164.493,617.765C187.168,612.146 211.42,611.33 235.847,616.207C260.042,621.037 281.934,630.959 300.601,644.633C283.225,657.316 268.431,673.321 257.154,691.71C227.24,685.286 202.145,665.834 188.123,639.605C197.035,670.195 219.777,694.893 249.106,706.478Z" style="fill:rgb(0,175,255);"/>
                    </g>
                    <g transform="matrix(3.02065,0,0,2.8252,-277.361,-1805.3)">
                        <path d="M222.495,802.065C223.266,711.934 296.677,639 386.988,639C397.203,639 407.202,639.933 416.87,641.763C425.857,662.039 430.822,684.451 430.822,708.013C430.822,782.284 381.495,845.124 313.843,865.533C308.453,852.52 300.466,840.851 290.531,831.174C288.23,828.903 285.823,826.74 283.317,824.692C293.249,783.134 318.971,747.687 353.774,725.085C313.478,741.033 280.979,772.466 263.612,812.028C251.134,805.892 237.231,802.212 222.536,801.62L222.525,802.066L222.495,802.065Z" style="fill:rgb(0,175,255);"/>
                    </g>
                </g>
            </g>
        </g>
    </g>
    <g transform="matrix(1.33961,0,0,1.33961,2.70259,-102.391)">
        <g transform="matrix(43.5449,0,0,43.5449,86.2542,316.521)">
            <path d="M0.367,0.015C0.304,0.015 0.247,0 0.196,-0.029C0.145,-0.059 0.104,-0.102 0.075,-0.159C0.045,-0.215 0.03,-0.282 0.03,-0.36C0.03,-0.437 0.045,-0.504 0.074,-0.56C0.102,-0.617 0.143,-0.66 0.194,-0.69C0.245,-0.72 0.303,-0.735 0.367,-0.735C0.454,-0.735 0.523,-0.715 0.576,-0.674C0.629,-0.634 0.664,-0.576 0.683,-0.5L0.56,-0.481C0.546,-0.525 0.522,-0.559 0.49,-0.584C0.458,-0.609 0.418,-0.621 0.371,-0.621C0.324,-0.621 0.285,-0.61 0.253,-0.589C0.221,-0.567 0.197,-0.536 0.181,-0.497C0.165,-0.458 0.158,-0.411 0.158,-0.359C0.158,-0.306 0.166,-0.26 0.182,-0.221C0.199,-0.182 0.224,-0.151 0.257,-0.13C0.29,-0.109 0.33,-0.099 0.379,-0.099C0.432,-0.099 0.475,-0.114 0.508,-0.145C0.541,-0.176 0.563,-0.222 0.572,-0.283L0.445,-0.283L0.445,-0.378L0.7,-0.378C0.701,-0.371 0.701,-0.363 0.702,-0.355C0.702,-0.347 0.702,-0.34 0.702,-0.336C0.702,-0.268 0.689,-0.207 0.662,-0.154C0.634,-0.101 0.596,-0.06 0.545,-0.03C0.495,0 0.435,0.015 0.367,0.015Z" style="fill:white;fill-rule:nonzero;"/>
        </g>
        <g transform="matrix(43.5449,0,0,43.5449,118.129,316.521)">
            <path d="M0.309,0.015C0.255,0.015 0.208,0.003 0.168,-0.021C0.127,-0.045 0.095,-0.079 0.073,-0.122C0.051,-0.165 0.04,-0.215 0.04,-0.27C0.04,-0.326 0.051,-0.376 0.074,-0.419C0.096,-0.462 0.128,-0.495 0.169,-0.519C0.209,-0.543 0.256,-0.555 0.309,-0.555C0.362,-0.555 0.409,-0.543 0.45,-0.519C0.491,-0.495 0.522,-0.461 0.545,-0.418C0.567,-0.375 0.578,-0.325 0.578,-0.27C0.578,-0.214 0.567,-0.165 0.544,-0.122C0.522,-0.079 0.49,-0.045 0.449,-0.021C0.408,0.003 0.362,0.015 0.309,0.015ZM0.309,-0.098C0.355,-0.098 0.39,-0.114 0.414,-0.145C0.438,-0.175 0.451,-0.217 0.451,-0.27C0.451,-0.323 0.438,-0.365 0.414,-0.396C0.39,-0.427 0.355,-0.442 0.309,-0.442C0.262,-0.442 0.226,-0.427 0.203,-0.396C0.179,-0.365 0.168,-0.323 0.168,-0.27C0.168,-0.216 0.18,-0.174 0.204,-0.144C0.228,-0.113 0.263,-0.098 0.309,-0.098Z" style="fill:white;fill-rule:nonzero;"/>
        </g>
        <g transform="matrix(43.5449,0,0,43.5449,153.749,316.521)">
            <path d="M0.279,0.015C0.212,0.015 0.158,0 0.116,-0.03C0.074,-0.06 0.049,-0.102 0.04,-0.157L0.163,-0.175C0.169,-0.149 0.183,-0.127 0.205,-0.112C0.227,-0.097 0.254,-0.09 0.287,-0.09C0.316,-0.09 0.338,-0.095 0.354,-0.107C0.37,-0.118 0.378,-0.134 0.378,-0.154C0.378,-0.167 0.375,-0.177 0.369,-0.184C0.363,-0.191 0.35,-0.198 0.332,-0.205C0.314,-0.212 0.283,-0.221 0.241,-0.232C0.195,-0.244 0.159,-0.257 0.132,-0.271C0.106,-0.285 0.087,-0.301 0.075,-0.32C0.063,-0.339 0.058,-0.362 0.058,-0.389C0.058,-0.422 0.066,-0.452 0.084,-0.476C0.101,-0.501 0.126,-0.521 0.158,-0.535C0.19,-0.548 0.228,-0.555 0.27,-0.555C0.312,-0.555 0.349,-0.549 0.382,-0.536C0.414,-0.523 0.441,-0.504 0.461,-0.48C0.481,-0.456 0.493,-0.428 0.498,-0.396L0.375,-0.374C0.371,-0.397 0.361,-0.415 0.343,-0.428C0.325,-0.441 0.301,-0.449 0.272,-0.451C0.244,-0.452 0.221,-0.447 0.203,-0.437C0.186,-0.427 0.178,-0.413 0.178,-0.395C0.178,-0.384 0.181,-0.375 0.188,-0.368C0.195,-0.361 0.209,-0.354 0.23,-0.347C0.25,-0.34 0.282,-0.331 0.325,-0.32C0.369,-0.308 0.403,-0.296 0.429,-0.281C0.454,-0.268 0.473,-0.251 0.484,-0.231C0.496,-0.212 0.501,-0.188 0.501,-0.16C0.501,-0.124 0.493,-0.092 0.475,-0.066C0.457,-0.04 0.431,-0.02 0.398,-0.006C0.364,0.008 0.325,0.015 0.279,0.015Z" style="fill:rgb(179,227,255);fill-rule:nonzero;"/>
        </g>
        <g transform="matrix(43.5449,0,0,43.5449,177.328,316.521)">
            <path d="M0.228,-0.446L0.228,-0.199C0.228,-0.182 0.229,-0.168 0.23,-0.157C0.231,-0.146 0.234,-0.138 0.239,-0.131C0.247,-0.118 0.257,-0.109 0.271,-0.103C0.285,-0.098 0.302,-0.096 0.323,-0.096C0.341,-0.096 0.363,-0.097 0.387,-0.101L0.387,0C0.354,0.006 0.323,0.009 0.295,0.01C0.256,0.009 0.223,0.003 0.194,-0.009C0.165,-0.021 0.143,-0.04 0.129,-0.067C0.12,-0.082 0.114,-0.098 0.112,-0.115C0.109,-0.132 0.108,-0.152 0.108,-0.174L0.108,-0.221L0.108,-0.446L0.01,-0.446L0.01,-0.54L0.108,-0.54L0.108,-0.69L0.228,-0.69L0.228,-0.54L0.387,-0.54L0.387,-0.446L0.228,-0.446Z" style="fill:rgb(179,227,255);fill-rule:nonzero;"/>
        </g>
        <g transform="matrix(43.5449,0,0,43.5449,196.183,316.521)">
            <path d="M0.496,-0.455C0.504,-0.437 0.51,-0.419 0.512,-0.401C0.515,-0.382 0.516,-0.359 0.516,-0.332L0.516,0L0.41,0L0.41,-0.073C0.388,-0.042 0.361,-0.02 0.331,-0.006C0.3,0.008 0.264,0.015 0.221,0.015C0.183,0.015 0.15,0.008 0.123,-0.007C0.096,-0.021 0.075,-0.041 0.061,-0.066C0.047,-0.09 0.04,-0.118 0.04,-0.148C0.04,-0.188 0.05,-0.221 0.07,-0.248C0.09,-0.274 0.121,-0.295 0.163,-0.31C0.187,-0.317 0.214,-0.324 0.245,-0.329C0.276,-0.335 0.32,-0.342 0.377,-0.35L0.398,-0.354C0.396,-0.385 0.386,-0.408 0.368,-0.423C0.351,-0.437 0.324,-0.445 0.288,-0.445C0.261,-0.445 0.237,-0.438 0.215,-0.426C0.193,-0.414 0.178,-0.395 0.17,-0.369L0.059,-0.404C0.073,-0.451 0.099,-0.488 0.138,-0.515C0.176,-0.542 0.226,-0.555 0.288,-0.555C0.338,-0.555 0.38,-0.547 0.416,-0.531C0.452,-0.514 0.478,-0.489 0.496,-0.455ZM0.385,-0.171C0.392,-0.188 0.396,-0.216 0.397,-0.255C0.344,-0.246 0.307,-0.24 0.284,-0.236C0.261,-0.232 0.241,-0.227 0.224,-0.221C0.202,-0.213 0.186,-0.203 0.174,-0.192C0.164,-0.18 0.158,-0.166 0.158,-0.15C0.158,-0.129 0.166,-0.113 0.181,-0.1C0.196,-0.087 0.217,-0.081 0.245,-0.081C0.271,-0.081 0.293,-0.086 0.313,-0.095C0.332,-0.104 0.348,-0.115 0.36,-0.129C0.372,-0.143 0.38,-0.157 0.385,-0.171Z" style="fill:rgb(179,227,255);fill-rule:nonzero;"/>
        </g>
        <g transform="matrix(43.5449,0,0,43.5449,221.265,316.521)">
            <path d="M0.325,-0.555C0.375,-0.555 0.419,-0.543 0.457,-0.518C0.495,-0.494 0.524,-0.46 0.545,-0.417C0.566,-0.374 0.576,-0.325 0.576,-0.27C0.576,-0.216 0.566,-0.167 0.546,-0.124C0.525,-0.081 0.496,-0.047 0.459,-0.022C0.421,0.003 0.378,0.015 0.33,0.015C0.267,0.015 0.216,-0.003 0.175,-0.04L0.175,0L0.069,0L0.069,-0.72L0.191,-0.72L0.191,-0.514C0.228,-0.541 0.273,-0.555 0.325,-0.555ZM0.311,-0.093C0.341,-0.093 0.367,-0.101 0.387,-0.116C0.408,-0.131 0.423,-0.152 0.433,-0.179C0.443,-0.206 0.449,-0.236 0.449,-0.27C0.449,-0.304 0.443,-0.334 0.433,-0.361C0.423,-0.387 0.407,-0.408 0.386,-0.424C0.365,-0.439 0.338,-0.447 0.307,-0.447C0.263,-0.447 0.23,-0.431 0.208,-0.4C0.186,-0.368 0.175,-0.325 0.175,-0.27C0.175,-0.215 0.187,-0.172 0.209,-0.14C0.231,-0.109 0.265,-0.093 0.311,-0.093Z" style="fill:rgb(179,227,255);fill-rule:nonzero;"/>
        </g>
        <g transform="matrix(43.5449,0,0,43.5449,248.089,316.521)">
            <rect x="0.08" y="-0.735" width="0.121" height="0.735" style="fill:rgb(179,227,255);fill-rule:nonzero;"/>
        </g>
        <g transform="matrix(43.5449,0,0,43.5449,260.303,316.521)">
            <path d="M0.169,-0.236C0.174,-0.192 0.188,-0.158 0.212,-0.134C0.236,-0.11 0.268,-0.098 0.309,-0.098C0.338,-0.098 0.363,-0.105 0.385,-0.118C0.407,-0.131 0.423,-0.15 0.435,-0.175L0.554,-0.139C0.54,-0.107 0.521,-0.079 0.497,-0.056C0.473,-0.033 0.445,-0.015 0.414,-0.003C0.383,0.009 0.35,0.015 0.316,0.015C0.262,0.015 0.214,0.003 0.172,-0.021C0.13,-0.044 0.098,-0.077 0.075,-0.119C0.052,-0.162 0.04,-0.21 0.04,-0.264C0.04,-0.322 0.051,-0.373 0.074,-0.417C0.096,-0.461 0.128,-0.495 0.169,-0.519C0.209,-0.543 0.256,-0.555 0.309,-0.555C0.361,-0.555 0.406,-0.544 0.444,-0.521C0.482,-0.498 0.511,-0.465 0.531,-0.422C0.551,-0.38 0.562,-0.33 0.562,-0.273C0.562,-0.261 0.561,-0.249 0.56,-0.236L0.169,-0.236ZM0.314,-0.45C0.234,-0.45 0.186,-0.409 0.172,-0.328L0.438,-0.328C0.433,-0.37 0.42,-0.4 0.4,-0.42C0.38,-0.44 0.351,-0.45 0.314,-0.45Z" style="fill:rgb(179,227,255);fill-rule:nonzero;"/>
        </g>
        <g transform="matrix(43.5449,0,0,43.5449,285.646,316.521)">
            <rect x="0.09" y="-0.124" width="0.124" height="0.124" style="fill:white;fill-rule:nonzero;"/>
        </g>
        <g transform="matrix(43.5449,0,0,43.5449,86.2542,372.507)">
            <path d="M0.367,0.015C0.304,0.015 0.247,0 0.196,-0.029C0.145,-0.059 0.104,-0.102 0.075,-0.159C0.045,-0.215 0.03,-0.282 0.03,-0.36C0.03,-0.437 0.045,-0.504 0.074,-0.56C0.102,-0.617 0.143,-0.66 0.194,-0.69C0.245,-0.72 0.303,-0.735 0.367,-0.735C0.454,-0.735 0.523,-0.715 0.576,-0.674C0.629,-0.634 0.664,-0.576 0.683,-0.5L0.56,-0.481C0.546,-0.525 0.522,-0.559 0.49,-0.584C0.458,-0.609 0.418,-0.621 0.371,-0.621C0.324,-0.621 0.285,-0.61 0.253,-0.589C0.221,-0.567 0.197,-0.536 0.181,-0.497C0.165,-0.458 0.158,-0.411 0.158,-0.359C0.158,-0.306 0.166,-0.26 0.182,-0.221C0.199,-0.182 0.224,-0.151 0.257,-0.13C0.29,-0.109 0.33,-0.099 0.379,-0.099C0.432,-0.099 0.475,-0.114 0.508,-0.145C0.541,-0.176 0.563,-0.222 0.572,-0.283L0.445,-0.283L0.445,-0.378L0.7,-0.378C0.701,-0.371 0.701,-0.363 0.702,-0.355C0.702,-0.347 0.702,-0.34 0.702,-0.336C0.702,-0.268 0.689,-0.207 0.662,-0.154C0.634,-0.101 0.596,-0.06 0.545,-0.03C0.495,0 0.435,0.015 0.367,0.015Z" style="fill:white;fill-rule:nonzero;"/>
        </g>
        <g transform="matrix(43.5449,0,0,43.5449,118.129,372.507)">
            <path d="M0.309,0.015C0.255,0.015 0.208,0.003 0.168,-0.021C0.127,-0.045 0.095,-0.079 0.073,-0.122C0.051,-0.165 0.04,-0.215 0.04,-0.27C0.04,-0.326 0.051,-0.376 0.074,-0.419C0.096,-0.462 0.128,-0.495 0.169,-0.519C0.209,-0.543 0.256,-0.555 0.309,-0.555C0.362,-0.555 0.409,-0.543 0.45,-0.519C0.491,-0.495 0.522,-0.461 0.545,-0.418C0.567,-0.375 0.578,-0.325 0.578,-0.27C0.578,-0.214 0.567,-0.165 0.544,-0.122C0.522,-0.079 0.49,-0.045 0.449,-0.021C0.408,0.003 0.362,0.015 0.309,0.015ZM0.309,-0.098C0.355,-0.098 0.39,-0.114 0.414,-0.145C0.438,-0.175 0.451,-0.217 0.451,-0.27C0.451,-0.323 0.438,-0.365 0.414,-0.396C0.39,-0.427 0.355,-0.442 0.309,-0.442C0.262,-0.442 0.226,-0.427 0.203,-0.396C0.179,-0.365 0.168,-0.323 0.168,-0.27C0.168,-0.216 0.18,-0.174 0.204,-0.144C0.228,-0.113 0.263,-0.098 0.309,-0.098Z" style="fill:white;fill-rule:nonzero;"/>
        </g>
        <g transform="matrix(43.5449,0,0,43.5449,153.749,372.507)">
            <path d="M0.306,-0.637C0.283,-0.637 0.266,-0.631 0.255,-0.62C0.243,-0.609 0.237,-0.594 0.237,-0.575L0.237,-0.54L0.368,-0.54L0.368,-0.446L0.237,-0.446L0.237,0L0.117,0L0.117,-0.446L0.03,-0.446L0.03,-0.54L0.117,-0.54L0.117,-0.549C0.117,-0.569 0.117,-0.586 0.118,-0.6C0.119,-0.614 0.123,-0.629 0.128,-0.645C0.133,-0.661 0.141,-0.675 0.153,-0.688C0.17,-0.708 0.19,-0.72 0.212,-0.726C0.234,-0.732 0.258,-0.735 0.285,-0.735L0.368,-0.735L0.368,-0.637L0.306,-0.637Z" style="fill:rgb(123,207,255);fill-rule:nonzero;"/>
        </g>
        <g transform="matrix(43.5449,0,0,43.5449,169.556,372.507)">
            <path d="M0.496,-0.455C0.504,-0.437 0.51,-0.419 0.512,-0.401C0.515,-0.382 0.516,-0.359 0.516,-0.332L0.516,0L0.41,0L0.41,-0.073C0.388,-0.042 0.361,-0.02 0.331,-0.006C0.3,0.008 0.264,0.015 0.221,0.015C0.183,0.015 0.15,0.008 0.123,-0.007C0.096,-0.021 0.075,-0.041 0.061,-0.066C0.047,-0.09 0.04,-0.118 0.04,-0.148C0.04,-0.188 0.05,-0.221 0.07,-0.248C0.09,-0.274 0.121,-0.295 0.163,-0.31C0.187,-0.317 0.214,-0.324 0.245,-0.329C0.276,-0.335 0.32,-0.342 0.377,-0.35L0.398,-0.354C0.396,-0.385 0.386,-0.408 0.368,-0.423C0.351,-0.437 0.324,-0.445 0.288,-0.445C0.261,-0.445 0.237,-0.438 0.215,-0.426C0.193,-0.414 0.178,-0.395 0.17,-0.369L0.059,-0.404C0.073,-0.451 0.099,-0.488 0.138,-0.515C0.176,-0.542 0.226,-0.555 0.288,-0.555C0.338,-0.555 0.38,-0.547 0.416,-0.531C0.452,-0.514 0.478,-0.489 0.496,-0.455ZM0.385,-0.171C0.392,-0.188 0.396,-0.216 0.397,-0.255C0.344,-0.246 0.307,-0.24 0.284,-0.236C0.261,-0.232 0.241,-0.227 0.224,-0.221C0.202,-0.213 0.186,-0.203 0.174,-0.192C0.164,-0.18 0.158,-0.166 0.158,-0.15C0.158,-0.129 0.166,-0.113 0.181,-0.1C0.196,-0.087 0.217,-0.081 0.245,-0.081C0.271,-0.081 0.293,-0.086 0.313,-0.095C0.332,-0.104 0.348,-0.115 0.36,-0.129C0.372,-0.143 0.38,-0.157 0.385,-0.171Z" style="fill:rgb(123,207,255);fill-rule:nonzero;"/>
        </g>
        <g transform="matrix(43.5449,0,0,43.5449,194.637,372.507)">
            <path d="M0.279,0.015C0.212,0.015 0.158,0 0.116,-0.03C0.074,-0.06 0.049,-0.102 0.04,-0.157L0.163,-0.175C0.169,-0.149 0.183,-0.127 0.205,-0.112C0.227,-0.097 0.254,-0.09 0.287,-0.09C0.316,-0.09 0.338,-0.095 0.354,-0.107C0.37,-0.118 0.378,-0.134 0.378,-0.154C0.378,-0.167 0.375,-0.177 0.369,-0.184C0.363,-0.191 0.35,-0.198 0.332,-0.205C0.314,-0.212 0.283,-0.221 0.241,-0.232C0.195,-0.244 0.159,-0.257 0.132,-0.271C0.106,-0.285 0.087,-0.301 0.075,-0.32C0.063,-0.339 0.058,-0.362 0.058,-0.389C0.058,-0.422 0.066,-0.452 0.084,-0.476C0.101,-0.501 0.126,-0.521 0.158,-0.535C0.19,-0.548 0.228,-0.555 0.27,-0.555C0.312,-0.555 0.349,-0.549 0.382,-0.536C0.414,-0.523 0.441,-0.504 0.461,-0.48C0.481,-0.456 0.493,-0.428 0.498,-0.396L0.375,-0.374C0.371,-0.397 0.361,-0.415 0.343,-0.428C0.325,-0.441 0.301,-0.449 0.272,-0.451C0.244,-0.452 0.221,-0.447 0.203,-0.437C0.186,-0.427 0.178,-0.413 0.178,-0.395C0.178,-0.384 0.181,-0.375 0.188,-0.368C0.195,-0.361 0.209,-0.354 0.23,-0.347C0.25,-0.34 0.282,-0.331 0.325,-0.32C0.369,-0.308 0.403,-0.296 0.429,-0.281C0.454,-0.268 0.473,-0.251 0.484,-0.231C0.496,-0.212 0.501,-0.188 0.501,-0.16C0.501,-0.124 0.493,-0.092 0.475,-0.066C0.457,-0.04 0.431,-0.02 0.398,-0.006C0.364,0.008 0.325,0.015 0.279,0.015Z" style="fill:rgb(123,207,255);fill-rule:nonzero;"/>
        </g>
        <g transform="matrix(43.5449,0,0,43.5449,218.217,372.507)">
            <path d="M0.228,-0.446L0.228,-0.199C0.228,-0.182 0.229,-0.168 0.23,-0.157C0.231,-0.146 0.234,-0.138 0.239,-0.131C0.247,-0.118 0.257,-0.109 0.271,-0.103C0.285,-0.098 0.302,-0.096 0.323,-0.096C0.341,-0.096 0.363,-0.097 0.387,-0.101L0.387,0C0.354,0.006 0.323,0.009 0.295,0.01C0.256,0.009 0.223,0.003 0.194,-0.009C0.165,-0.021 0.143,-0.04 0.129,-0.067C0.12,-0.082 0.114,-0.098 0.112,-0.115C0.109,-0.132 0.108,-0.152 0.108,-0.174L0.108,-0.221L0.108,-0.446L0.01,-0.446L0.01,-0.54L0.108,-0.54L0.108,-0.69L0.228,-0.69L0.228,-0.54L0.387,-0.54L0.387,-0.446L0.228,-0.446Z" style="fill:rgb(123,207,255);fill-rule:nonzero;"/>
        </g>
        <g transform="matrix(43.5449,0,0,43.5449,237.072,372.507)">
            <rect x="0.09" y="-0.124" width="0.124" height="0.124" style="fill:white;fill-rule:nonzero;"/>
        </g>
        <g transform="matrix(43.5449,0,0,43.5449,86.2542,428.493)">
            <path d="M0.367,0.015C0.304,0.015 0.247,0 0.196,-0.029C0.145,-0.059 0.104,-0.102 0.075,-0.159C0.045,-0.215 0.03,-0.282 0.03,-0.36C0.03,-0.437 0.045,-0.504 0.074,-0.56C0.102,-0.617 0.143,-0.66 0.194,-0.69C0.245,-0.72 0.303,-0.735 0.367,-0.735C0.454,-0.735 0.523,-0.715 0.576,-0.674C0.629,-0.634 0.664,-0.576 0.683,-0.5L0.56,-0.481C0.546,-0.525 0.522,-0.559 0.49,-0.584C0.458,-0.609 0.418,-0.621 0.371,-0.621C0.324,-0.621 0.285,-0.61 0.253,-0.589C0.221,-0.567 0.197,-0.536 0.181,-0.497C0.165,-0.458 0.158,-0.411 0.158,-0.359C0.158,-0.306 0.166,-0.26 0.182,-0.221C0.199,-0.182 0.224,-0.151 0.257,-0.13C0.29,-0.109 0.33,-0.099 0.379,-0.099C0.432,-0.099 0.475,-0.114 0.508,-0.145C0.541,-0.176 0.563,-0.222 0.572,-0.283L0.445,-0.283L0.445,-0.378L0.7,-0.378C0.701,-0.371 0.701,-0.363 0.702,-0.355C0.702,-0.347 0.702,-0.34 0.702,-0.336C0.702,-0.268 0.689,-0.207 0.662,-0.154C0.634,-0.101 0.596,-0.06 0.545,-0.03C0.495,0 0.435,0.015 0.367,0.015Z" style="fill:white;fill-rule:nonzero;"/>
        </g>
        <g transform="matrix(43.5449,0,0,43.5449,118.129,428.493)">
            <path d="M0.309,0.015C0.255,0.015 0.208,0.003 0.168,-0.021C0.127,-0.045 0.095,-0.079 0.073,-0.122C0.051,-0.165 0.04,-0.215 0.04,-0.27C0.04,-0.326 0.051,-0.376 0.074,-0.419C0.096,-0.462 0.128,-0.495 0.169,-0.519C0.209,-0.543 0.256,-0.555 0.309,-0.555C0.362,-0.555 0.409,-0.543 0.45,-0.519C0.491,-0.495 0.522,-0.461 0.545,-0.418C0.567,-0.375 0.578,-0.325 0.578,-0.27C0.578,-0.214 0.567,-0.165 0.544,-0.122C0.522,-0.079 0.49,-0.045 0.449,-0.021C0.408,0.003 0.362,0.015 0.309,0.015ZM0.309,-0.098C0.355,-0.098 0.39,-0.114 0.414,-0.145C0.438,-0.175 0.451,-0.217 0.451,-0.27C0.451,-0.323 0.438,-0.365 0.414,-0.396C0.39,-0.427 0.355,-0.442 0.309,-0.442C0.262,-0.442 0.226,-0.427 0.203,-0.396C0.179,-0.365 0.168,-0.323 0.168,-0.27C0.168,-0.216 0.18,-0.174 0.204,-0.144C0.228,-0.113 0.263,-0.098 0.309,-0.098Z" style="fill:white;fill-rule:nonzero;"/>
        </g>
        <g transform="matrix(43.5449,0,0,43.5449,153.749,428.493)">
            <path d="M0.306,-0.637C0.283,-0.637 0.266,-0.631 0.255,-0.62C0.243,-0.609 0.237,-0.594 0.237,-0.575L0.237,-0.54L0.368,-0.54L0.368,-0.446L0.237,-0.446L0.237,0L0.117,0L0.117,-0.446L0.03,-0.446L0.03,-0.54L0.117,-0.54L0.117,-0.549C0.117,-0.569 0.117,-0.586 0.118,-0.6C0.119,-0.614 0.123,-0.629 0.128,-0.645C0.133,-0.661 0.141,-0.675 0.153,-0.688C0.17,-0.708 0.19,-0.72 0.212,-0.726C0.234,-0.732 0.258,-0.735 0.285,-0.735L0.368,-0.735L0.368,-0.637L0.306,-0.637Z" style="fill:rgb(0,175,255);fill-rule:nonzero;"/>
        </g>
        <g transform="matrix(43.5449,0,0,43.5449,170.209,428.493)">
            <path d="M0.231,-0.511C0.246,-0.522 0.263,-0.53 0.281,-0.535C0.301,-0.54 0.32,-0.543 0.34,-0.543C0.35,-0.543 0.362,-0.542 0.374,-0.54L0.374,-0.428C0.361,-0.431 0.348,-0.433 0.335,-0.433C0.307,-0.433 0.283,-0.427 0.263,-0.414C0.238,-0.402 0.221,-0.383 0.209,-0.359C0.197,-0.335 0.191,-0.307 0.191,-0.275L0.191,0L0.07,0L0.07,-0.54L0.177,-0.54L0.177,-0.454C0.191,-0.479 0.209,-0.498 0.231,-0.511Z" style="fill:rgb(0,175,255);fill-rule:nonzero;"/>
        </g>
        <g transform="matrix(43.5449,0,0,43.5449,187.148,428.493)">
            <path d="M0.169,-0.236C0.174,-0.192 0.188,-0.158 0.212,-0.134C0.236,-0.11 0.268,-0.098 0.309,-0.098C0.338,-0.098 0.363,-0.105 0.385,-0.118C0.407,-0.131 0.423,-0.15 0.435,-0.175L0.554,-0.139C0.54,-0.107 0.521,-0.079 0.497,-0.056C0.473,-0.033 0.445,-0.015 0.414,-0.003C0.383,0.009 0.35,0.015 0.316,0.015C0.262,0.015 0.214,0.003 0.172,-0.021C0.13,-0.044 0.098,-0.077 0.075,-0.119C0.052,-0.162 0.04,-0.21 0.04,-0.264C0.04,-0.322 0.051,-0.373 0.074,-0.417C0.096,-0.461 0.128,-0.495 0.169,-0.519C0.209,-0.543 0.256,-0.555 0.309,-0.555C0.361,-0.555 0.406,-0.544 0.444,-0.521C0.482,-0.498 0.511,-0.465 0.531,-0.422C0.551,-0.38 0.562,-0.33 0.562,-0.273C0.562,-0.261 0.561,-0.249 0.56,-0.236L0.169,-0.236ZM0.314,-0.45C0.234,-0.45 0.186,-0.409 0.172,-0.328L0.438,-0.328C0.433,-0.37 0.42,-0.4 0.4,-0.42C0.38,-0.44 0.351,-0.45 0.314,-0.45Z" style="fill:rgb(0,175,255);fill-rule:nonzero;"/>
        </g>
        <g transform="matrix(43.5449,0,0,43.5449,213.362,428.493)">
            <path d="M0.279,0.015C0.212,0.015 0.158,0 0.116,-0.03C0.074,-0.06 0.049,-0.102 0.04,-0.157L0.163,-0.175C0.169,-0.149 0.183,-0.127 0.205,-0.112C0.227,-0.097 0.254,-0.09 0.287,-0.09C0.316,-0.09 0.338,-0.095 0.354,-0.107C0.37,-0.118 0.378,-0.134 0.378,-0.154C0.378,-0.167 0.375,-0.177 0.369,-0.184C0.363,-0.191 0.35,-0.198 0.332,-0.205C0.314,-0.212 0.283,-0.221 0.241,-0.232C0.195,-0.244 0.159,-0.257 0.132,-0.271C0.106,-0.285 0.087,-0.301 0.075,-0.32C0.063,-0.339 0.058,-0.362 0.058,-0.389C0.058,-0.422 0.066,-0.452 0.084,-0.476C0.101,-0.501 0.126,-0.521 0.158,-0.535C0.19,-0.548 0.228,-0.555 0.27,-0.555C0.312,-0.555 0.349,-0.549 0.382,-0.536C0.414,-0.523 0.441,-0.504 0.461,-0.48C0.481,-0.456 0.493,-0.428 0.498,-0.396L0.375,-0.374C0.371,-0.397 0.361,-0.415 0.343,-0.428C0.325,-0.441 0.301,-0.449 0.272,-0.451C0.244,-0.452 0.221,-0.447 0.203,-0.437C0.186,-0.427 0.178,-0.413 0.178,-0.395C0.178,-0.384 0.181,-0.375 0.188,-0.368C0.195,-0.361 0.209,-0.354 0.23,-0.347C0.25,-0.34 0.282,-0.331 0.325,-0.32C0.369,-0.308 0.403,-0.296 0.429,-0.281C0.454,-0.268 0.473,-0.251 0.484,-0.231C0.496,-0.212 0.501,-0.188 0.501,-0.16C0.501,-0.124 0.493,-0.092 0.475,-0.066C0.457,-0.04 0.431,-0.02 0.398,-0.006C0.364,0.008 0.325,0.015 0.279,0.015Z" style="fill:rgb(0,175,255);fill-rule:nonzero;"/>
        </g>
        <g transform="matrix(43.5449,0,0,43.5449,236.941,428.493)">
            <path d="M0.353,-0.556C0.413,-0.556 0.459,-0.54 0.491,-0.51C0.522,-0.479 0.542,-0.445 0.552,-0.408C0.561,-0.371 0.566,-0.335 0.566,-0.302L0.566,0L0.444,0L0.444,-0.26C0.444,-0.381 0.402,-0.442 0.318,-0.442C0.281,-0.442 0.251,-0.43 0.227,-0.405C0.203,-0.38 0.191,-0.338 0.191,-0.278L0.191,0L0.069,0L0.069,-0.72L0.177,-0.72L0.177,-0.48C0.197,-0.504 0.222,-0.523 0.252,-0.536C0.281,-0.549 0.315,-0.556 0.353,-0.556Z" style="fill:rgb(0,175,255);fill-rule:nonzero;"/>
        </g>
        <g transform="matrix(43.5449,0,0,43.5449,264.179,428.493)">
            <rect x="0.09" y="-0.124" width="0.124" height="0.124" style="fill:white;fill-rule:nonzero;"/>
        </g>
    </g>
</svg>
